<svg width="40" height="40" viewBox="0 0 40 40" fill="none" xmlns="http://www.w3.org/2000/svg">
<g clip-path="url(#clip0_3025_5684)">
<path d="M32 0H8C3.58172 0 0 3.58172 0 8V32C0 36.4183 3.58172 40 8 40H32C36.4183 40 40 36.4183 40 32V8C40 3.58172 36.4183 0 32 0Z" fill="#F6DCAC"/>
<path fill-rule="evenodd" clip-rule="evenodd" d="M22.9242 14.0756C22.6899 13.8413 22.31 13.8413 22.0756 14.0756C21.8413 14.31 21.8413 14.6899 22.0756 14.9242L26.5514 19.3999H11.9999C11.6685 19.3999 11.3999 19.6685 11.3999 19.9999C11.3999 20.3313 11.6685 20.5999 11.9999 20.5999H26.5514L22.0756 25.0756C21.8413 25.31 21.8413 25.6899 22.0756 25.9242C22.31 26.1585 22.6899 26.1585 22.9242 25.9242L28.4242 20.4242C28.6585 20.1899 28.6585 19.81 28.4242 19.5756L22.9242 14.0756Z" fill="black" stroke="black" stroke-width="0.5" stroke-linecap="round" stroke-linejoin="round"/>
</g>
<defs>
<clipPath id="clip0_3025_5684">
<rect width="40" height="40" fill="white"/>
</clipPath>
</defs>
</svg>
