<svg width="40" height="40" viewBox="0 0 40 40" fill="none" xmlns="http://www.w3.org/2000/svg">
<g clip-path="url(#clip0_3025_5681)">
<path d="M8 40L32 40C36.4183 40 40 36.4183 40 32L40 8C40 3.58172 36.4183 0 32 0L8 0C3.58172 0 0 3.58172 0 8L0 32C0 36.4183 3.58172 40 8 40Z" fill="#F6DCAC"/>
<path fill-rule="evenodd" clip-rule="evenodd" d="M17.0756 25.9242C17.3099 26.1585 17.6898 26.1585 17.9242 25.9242C18.1585 25.6898 18.1585 25.3099 17.9242 25.0756L13.4484 20.5999H27.9999C28.3313 20.5999 28.5999 20.3313 28.5999 19.9999C28.5999 19.6685 28.3313 19.3999 27.9999 19.3999H13.4484L17.9242 14.9242C18.1585 14.6898 18.1585 14.3099 17.9242 14.0756C17.6898 13.8413 17.3099 13.8413 17.0756 14.0756L11.5756 19.5756C11.3413 19.8099 11.3413 20.1898 11.5756 20.4242L17.0756 25.9242Z" fill="black" stroke="black" stroke-width="0.5" stroke-linecap="round" stroke-linejoin="round"/>
</g>
<defs>
<clipPath id="clip0_3025_5681">
<rect width="40" height="40" fill="white"/>
</clipPath>
</defs>
</svg>
