<svg width="40" height="40" viewBox="0 0 40 40" fill="none" xmlns="http://www.w3.org/2000/svg">
<rect x="1" y="1" width="38" height="38" rx="19" fill="#AE2E13"/>
<rect x="1" y="1" width="38" height="38" rx="19" stroke="white" stroke-width="2"/>
<path d="M17.6854 11.2889C18.1807 11.1848 18.6929 11.1926 19.1848 11.3117C19.6767 11.4308 20.1359 11.6583 20.5287 11.9774C20.9215 12.2965 21.2381 12.6993 21.4554 13.1564C21.6726 13.6134 21.7851 14.1131 21.7847 14.6191C21.7835 15.0921 21.6876 15.56 21.5025 15.9953C21.3729 16.3003 21.515 16.6526 21.82 16.7822C22.1249 16.9119 22.4772 16.7697 22.6069 16.4648C22.8547 15.8818 22.9832 15.255 22.9847 14.6215C22.9854 13.9367 22.8331 13.2596 22.5391 12.6412C22.2451 12.0228 21.8168 11.4778 21.2853 11.046C20.7539 10.6143 20.1328 10.3066 19.4672 10.1454C18.8017 9.98429 18.1086 9.97375 17.4385 10.1146C16.7684 10.2554 16.1382 10.5441 15.5939 10.9595C15.0496 11.375 14.6049 11.9067 14.2922 12.5159C13.9796 13.1251 13.8069 13.7964 13.7867 14.4808C13.7666 15.1653 13.8995 15.8456 14.1757 16.4721C14.3094 16.7753 14.6636 16.9127 14.9668 16.779C15.27 16.6454 15.4074 16.2912 15.2737 15.988C15.0695 15.5249 14.9713 15.022 14.9862 14.5161C15.0011 14.0103 15.1287 13.5141 15.3598 13.0638C15.5909 12.6135 15.9196 12.2205 16.322 11.9135C16.7243 11.6064 17.1901 11.393 17.6854 11.2889Z" fill="white"/>
<path d="M25.8524 28.8949C25.9531 28.964 26.0726 29.0006 26.1947 29C26.2738 28.9948 26.3509 28.9736 26.4215 28.9374C26.492 28.9013 26.5543 28.8511 26.6047 28.79C27.3231 28.1216 27.7535 27.1999 27.8047 26.22V20.31C27.81 20.0685 27.7672 19.8283 27.6788 19.6035C27.5903 19.3787 27.458 19.1738 27.2895 19.0007C27.121 18.8276 26.9198 18.6897 26.6975 18.5952C26.4752 18.5006 26.2363 18.4513 25.9947 18.45C25.5247 18.447 25.0709 18.6221 24.7247 18.94C24.3676 18.6484 23.9207 18.4891 23.4597 18.4891C22.9987 18.4891 22.5518 18.6484 22.1947 18.94C21.9317 18.7141 21.6122 18.5641 21.2705 18.5059C20.9287 18.4478 20.5776 18.4838 20.2547 18.61V14.61C20.2202 14.139 20.0087 13.6984 19.6628 13.3769C19.3168 13.0554 18.862 12.8766 18.3897 12.8766C17.9174 12.8766 17.4626 13.0554 17.1167 13.3769C16.7707 13.6984 16.5592 14.139 16.5247 14.61V22.08L15.4647 21.39C15.0401 21.1069 14.53 20.9809 14.0224 21.0338C13.5149 21.0868 13.0417 21.3153 12.6847 21.68C12.3817 21.9681 12.2052 22.3646 12.1939 22.7826C12.1827 23.2006 12.3376 23.606 12.6247 23.91L17.0647 28.77C17.1202 28.832 17.2152 28.9118 17.291 28.9463C17.3667 28.9807 17.4488 28.999 17.532 29C17.6842 29.0015 17.8311 28.9442 17.942 28.84C17.998 28.7843 18.0423 28.718 18.0726 28.6451C18.1029 28.5722 18.1185 28.494 18.1185 28.415C18.1185 28.336 18.1029 28.2578 18.0726 28.1849C18.0423 28.112 17.9706 28.0157 17.9147 27.96L13.4947 23.12C13.4581 23.0785 13.4303 23.03 13.413 22.9775C13.3957 22.9249 13.3891 22.8694 13.3938 22.8143C13.3985 22.7592 13.4143 22.7056 13.4402 22.6567C13.4661 22.6079 13.5017 22.5648 13.5447 22.53C13.708 22.3702 13.9211 22.2712 14.1485 22.2493C14.376 22.2275 14.604 22.2842 14.7947 22.41L16.7947 23.72C16.8864 23.7766 16.992 23.8067 17.0997 23.8067C17.2075 23.8067 17.3131 23.7766 17.4047 23.72C17.5011 23.6716 17.5821 23.5974 17.6387 23.5055C17.6952 23.4136 17.725 23.3078 17.7247 23.2V14.61C17.7447 14.4477 17.8233 14.2982 17.9458 14.1899C18.0683 14.0815 18.2262 14.0217 18.3897 14.0217C18.5533 14.0217 18.7112 14.0815 18.8337 14.1899C18.9561 14.2982 19.0348 14.4477 19.0547 14.61V20.31C19.0547 20.4691 19.1179 20.6217 19.2305 20.7343C19.343 20.8468 19.4956 20.91 19.6547 20.91C19.8138 20.91 19.9665 20.8468 20.079 20.7343C20.1915 20.6217 20.2547 20.4691 20.2547 20.31C20.2431 20.2158 20.2517 20.1203 20.2798 20.0296C20.308 19.939 20.355 19.8554 20.4179 19.7844C20.4808 19.7133 20.558 19.6564 20.6445 19.6174C20.731 19.5784 20.8248 19.5583 20.9197 19.5583C21.0146 19.5583 21.1084 19.5784 21.1949 19.6174C21.2814 19.6564 21.3587 19.7133 21.4215 19.7844C21.4844 19.8554 21.5315 19.939 21.5596 20.0296C21.5877 20.1203 21.5963 20.2158 21.5847 20.31C21.5847 20.4691 21.6479 20.6217 21.7604 20.7343C21.873 20.8468 22.0256 20.91 22.1847 20.91C22.3438 20.91 22.4965 20.8468 22.609 20.7343C22.7215 20.6217 22.7847 20.4691 22.7847 20.31C22.7731 20.2158 22.7817 20.1203 22.8098 20.0296C22.838 19.939 22.885 19.8554 22.9479 19.7844C23.0108 19.7133 23.088 19.6564 23.1745 19.6174C23.261 19.5784 23.3548 19.5583 23.4497 19.5583C23.5446 19.5583 23.6384 19.5784 23.7249 19.6174C23.8114 19.6564 23.8887 19.7133 23.9515 19.7844C24.0144 19.8554 24.0615 19.939 24.0896 20.0296C24.1177 20.1203 24.1263 20.2158 24.1147 20.31C24.1147 20.4691 24.1779 20.6217 24.2904 20.7343C24.403 20.8468 24.5556 20.91 24.7147 20.91C24.8738 20.91 25.0265 20.8468 25.139 20.7343C25.2515 20.6217 25.3147 20.4691 25.3147 20.31C25.3147 20.1323 25.3853 19.9619 25.511 19.8362C25.6366 19.7106 25.807 19.64 25.9847 19.64C26.0692 19.6425 26.1524 19.662 26.2292 19.6973C26.306 19.7326 26.3749 19.7831 26.4319 19.8456C26.4888 19.9081 26.5325 19.9814 26.5605 20.0612C26.5885 20.141 26.6001 20.2256 26.5947 20.31V26.27C26.5399 26.9083 26.2557 27.5051 25.7947 27.95C25.7031 28.0308 25.6383 28.1376 25.6091 28.2562C25.5798 28.3748 25.5874 28.4995 25.6309 28.6136C25.6744 28.7277 25.7516 28.8259 25.8524 28.8949Z" fill="white"/>
</svg>
