<svg width="24" height="24" viewBox="0 0 24 24" fill="none" xmlns="http://www.w3.org/2000/svg">
<path fill-rule="evenodd" clip-rule="evenodd" d="M6.42429 5.57576C6.18997 5.34145 5.81007 5.34145 5.57576 5.57576C5.34145 5.81007 5.34145 6.18997 5.57576 6.42429L11.1515 12L5.57576 17.5758C5.34145 17.8101 5.34145 18.19 5.57576 18.4243C5.81007 18.6586 6.18997 18.6586 6.42429 18.4243L12 12.8486L17.5758 18.4243C17.8101 18.6586 18.19 18.6586 18.4243 18.4243C18.6586 18.19 18.6586 17.8101 18.4243 17.5758L12.8486 12L18.4243 6.42429C18.6586 6.18997 18.6586 5.81007 18.4243 5.57576C18.19 5.34145 17.8101 5.34145 17.5758 5.57576L12 11.1515L6.42429 5.57576Z" fill="#141415"/>
</svg>
