<svg width="32" height="32" viewBox="0 0 32 32" fill="none" xmlns="http://www.w3.org/2000/svg">
<rect x="0.5" y="0.5" width="31" height="31" rx="15.5" fill="white" stroke="#C4CFE3"/>
<path d="M8.02077 23.135H10.9854V15.9352L6.75021 12.7588V21.8644C6.75021 22.5675 7.31985 23.135 8.02077 23.135Z" fill="#4285F4"/>
<path d="M21.1498 23.135H24.1145C24.8175 23.135 25.385 22.5654 25.385 21.8644V12.7588L21.1498 15.9352" fill="#34A853"/>
<path d="M21.1498 10.4296V15.9353L25.385 12.7589V11.0648C25.385 9.49358 23.5914 8.59784 22.3357 9.54017" fill="#FBBC04"/>
<path d="M10.9854 15.9352V10.4294L16.0676 14.2411L21.1499 10.4294V15.9352L16.0676 19.7469" fill="#EA4335"/>
<path d="M6.75021 11.0648V12.7589L10.9854 15.9353V10.4296L9.79955 9.54017C8.5417 8.59784 6.75021 9.49358 6.75021 11.0648Z" fill="#C5221F"/>
</svg>
